<svg width="296" height="53" viewBox="0 0 296 53" fill="none" xmlns="http://www.w3.org/2000/svg">
<path d="M0.904 52L2.704 1.528H15.592L24.808 31.48H25.24L34.672 1.528H47.416L49.216 52H39.424L39.496 12.4H39.064L30.352 41.128H19.768L11.056 12.4H10.624L10.696 52H0.904ZM61.5252 52L61.8132 28.816L61.5252 1.528H71.4612L71.2452 23.992L71.4612 52H61.5252ZM84.3064 52L84.5944 28.528L84.3064 1.6C84.3064 1.6 84.9064 1.552 86.1064 1.456C87.3064 1.36 88.8424 1.24 90.7144 1.096C92.6344 0.951998 94.6744 0.831998 96.8344 0.735999C99.0424 0.639997 101.13 0.591997 103.098 0.591997C108.09 0.591997 111.93 2.056 114.618 4.984C117.354 7.912 118.722 12.28 118.722 18.088C118.722 21.736 118.242 24.76 117.282 27.16C116.322 29.512 115.002 31.36 113.322 32.704C111.69 34.048 109.842 35.008 107.778 35.584C105.762 36.112 103.674 36.376 101.514 36.376C99.7864 36.376 98.1784 36.328 96.6904 36.232C95.2504 36.136 94.4104 36.088 94.1704 36.088V52H84.3064ZM101.802 28.456C103.098 28.456 104.154 28.36 104.97 28.168C105.786 27.928 106.386 27.64 106.77 27.304C107.394 26.68 107.826 25.6 108.066 24.064C108.306 22.48 108.426 20.296 108.426 17.512C108.426 15.352 108.33 13.744 108.138 12.688C107.946 11.584 107.706 10.816 107.418 10.384C107.178 9.952 106.914 9.64 106.626 9.448C106.29 9.112 105.666 8.848 104.754 8.656C103.89 8.464 102.738 8.368 101.298 8.368C100.002 8.368 98.7064 8.416 97.4104 8.512C96.1624 8.608 95.0824 8.728 94.1704 8.872V27.808C94.3624 27.856 95.2024 27.976 96.6904 28.168C98.1784 28.36 99.8824 28.456 101.802 28.456ZM128.252 52V1.528H157.052V10.024L133.724 9.736L138.26 5.344L137.612 26.44L133.364 22.264H155.252V30.544H133.364L137.612 26.296L138.26 48.112L133.724 43.72L157.052 43.576V52H128.252ZM167.205 52V1.528H179.949L196.797 40.12H197.157L196.221 1.528H205.293V52H192.621L175.701 13.336H175.341L176.349 52H167.205ZM234.385 52.936C232.897 52.936 231.289 52.888 229.561 52.792C227.881 52.744 226.225 52.648 224.593 52.504C223.009 52.408 221.617 52.312 220.417 52.216C219.265 52.12 218.473 52.048 218.041 52V1.528C218.617 1.48 219.529 1.408 220.777 1.312C222.073 1.216 223.537 1.12 225.169 1.024C226.849 0.879999 228.553 0.783998 230.281 0.735999C232.057 0.639997 233.689 0.591997 235.177 0.591997C239.353 0.591997 242.761 1.264 245.401 2.608C248.041 3.952 250.057 5.8 251.449 8.152C252.889 10.504 253.873 13.24 254.401 16.36C254.929 19.432 255.193 22.696 255.193 26.152C255.193 32.824 254.305 38.128 252.529 42.064C250.801 45.952 248.377 48.736 245.257 50.416C242.137 52.096 238.513 52.936 234.385 52.936ZM234.601 44.44C236.521 44.44 238.009 44.296 239.065 44.008C240.121 43.72 240.889 43.36 241.369 42.928C241.945 42.4 242.497 41.536 243.025 40.336C243.601 39.088 244.033 37.312 244.321 35.008C244.657 32.656 244.825 29.584 244.825 25.792C244.825 21.952 244.561 18.64 244.033 15.856C243.553 13.072 242.737 11.248 241.585 10.384C241.201 10.096 240.553 9.808 239.641 9.52C238.777 9.232 237.337 9.088 235.321 9.088C233.065 9.088 231.289 9.16 229.993 9.304C228.697 9.448 227.545 9.616 226.537 9.808L227.833 5.128V48.4L226.465 43.792C227.569 43.936 228.697 44.08 229.849 44.224C231.001 44.368 232.585 44.44 234.601 44.44ZM278.602 52.936C276.394 52.936 274.258 52.696 272.194 52.216C270.178 51.784 268.378 51.28 266.794 50.704C265.21 50.128 263.962 49.624 263.05 49.192C262.138 48.712 261.682 48.472 261.682 48.472C261.682 48.472 261.802 48.088 262.042 47.32C262.33 46.504 262.642 45.592 262.978 44.584C263.314 43.528 263.602 42.64 263.842 41.92C264.13 41.152 264.274 40.768 264.274 40.768C264.274 40.768 264.73 40.96 265.642 41.344C266.602 41.68 267.85 42.088 269.386 42.568C270.922 43.048 272.602 43.48 274.426 43.864C276.298 44.2 278.17 44.368 280.042 44.368C281.05 44.368 281.842 44.296 282.418 44.152C282.994 43.96 283.426 43.768 283.714 43.576C284.338 43.144 284.842 42.52 285.226 41.704C285.61 40.84 285.802 39.664 285.802 38.176C285.802 36.784 285.346 35.632 284.434 34.72C283.522 33.76 282.322 32.92 280.834 32.2C279.394 31.432 277.834 30.664 276.154 29.896C274.474 29.128 272.842 28.36 271.258 27.592C269.722 26.776 268.306 25.84 267.01 24.784C265.762 23.68 264.754 22.312 263.986 20.68C263.266 19 262.906 16.936 262.906 14.488C262.906 11.896 263.53 9.568 264.778 7.504C266.026 5.392 267.922 3.712 270.466 2.464C273.01 1.216 276.154 0.591997 279.898 0.591997C281.578 0.591997 283.234 0.711997 284.866 0.951996C286.546 1.144 288.082 1.384 289.474 1.672C290.866 1.96 291.97 2.224 292.786 2.464C293.602 2.656 294.01 2.752 294.01 2.752L292.426 10.672C292.426 10.672 291.994 10.6 291.13 10.456C290.266 10.312 289.138 10.144 287.746 9.952C286.354 9.712 284.842 9.52 283.21 9.376C281.578 9.232 280.018 9.16 278.53 9.16C277.57 9.16 276.802 9.232 276.226 9.376C275.65 9.52 275.146 9.712 274.714 9.952C274.282 10.24 273.874 10.72 273.49 11.392C273.154 12.016 272.986 13 272.986 14.344C272.986 15.544 273.37 16.6 274.138 17.512C274.906 18.376 275.914 19.144 277.162 19.816C278.458 20.488 279.85 21.16 281.338 21.832C282.922 22.552 284.554 23.32 286.234 24.136C287.914 24.904 289.474 25.864 290.914 27.016C292.354 28.12 293.53 29.536 294.442 31.264C295.402 32.944 295.882 35.056 295.882 37.6C295.882 40.672 295.138 43.36 293.65 45.664C292.21 47.968 290.194 49.768 287.602 51.064C285.058 52.312 282.058 52.936 278.602 52.936Z" fill="#468655"/>
</svg>
